<svg width="30" height="24" viewBox="0 0 30 24" fill="none" xmlns="http://www.w3.org/2000/svg">
<g clip-path="url(#clip0)">
<path d="M28.8777 1.12429C27.3826 -0.37631 24.9562 -0.37631 23.4611 1.12429L9.92183 14.7214L6.53457 11.3245C5.03948 9.82393 2.613 9.82393 1.11791 11.3245C-0.377193 12.8251 -0.377193 15.2618 1.11791 16.7624L7.21105 22.8806C8.70614 24.3812 11.1326 24.3812 12.6277 22.8806L28.8777 6.57182C30.3728 5.06157 30.3728 2.62972 28.8777 1.12429ZM27.5248 5.20632C27.5248 5.20632 11.5297 21.2642 11.2748 21.52C10.5297 22.2727 9.31399 22.2727 8.56889 21.52C8.56889 21.52 2.43653 15.3631 2.41693 15.3438C1.72575 14.5911 1.74536 13.4138 2.47085 12.6852C3.21595 11.9325 4.43163 11.9325 5.17673 12.6852L9.91693 17.4428L24.8189 2.48497C25.564 1.73225 26.7797 1.73225 27.5248 2.48497C28.2699 3.23768 28.2699 4.45361 27.5248 5.20632Z" fill="#ED1C24"/>
</g>
<defs>
<clipPath id="clip0">
<rect width="30" height="24" fill="white"/>
</clipPath>
</defs>
</svg>
